#!OML:ASF H:\ManfredETheater\Project 1\Capture day 1\Session 1\subject.ASF
:FULLY-SPECIFIED
:DEGREES
124
root 4.60172 16.5524 -41.0959 -170.945 0.462604 -182.156
lowerback 15.3856 -1.39737 -1.11937
upperback -0.807919 -1.65895 2.93191
thorax -9.41558 -0.602896 4.18745
lowerneck -23.4231 -0.486522 -2.82085
upperneck 12.1499 0.880645 -2.88745
head 7.54621 0.0299128 -0.393913
rclavicle 1.51076e-014 -3.97569e-015
rhumerus -57.2315 -0.765775 -77.7867
rradius 71.7373
rwrist -9.30554
rhand -26.3985 12.3927
rfingers 7.12502
rthumb 0.160872 -17.587
lclavicle 1.51076e-014 -3.97569e-015
lhumerus -46.2219 -11.029 99.1231
lradius 97.5163
lwrist 14.9044
lhand -23.1188 -11.5897
lfingers 7.12502
lthumb 3.32837 18.3641
rfemur -52.3929 -1.8212 19.9496
rtibia 53.6126
rfoot -8.59968 -7.29393
rtoes -34.0264
lfemur 0.206125 0.105134 -22.3187
ltibia 96.9579
lfoot 16.1826 -8.0611
ltoes 7.68639
125
root 4.63362 16.4925 -41.7733 -171.671 1.00309 -180.691
lowerback 16.2253 -1.18075 -0.0314708
upperback -0.644585 -1.06795 3.31423
thorax -9.77597 -0.334996 3.86963
lowerneck -23.2855 -0.504974 -2.74314
upperneck 12.0815 0.841351 -2.98278
head 7.50211 0.00839675 -0.442491
rclavicle -2.14687e-014 -2.14687e-014
rhumerus -54.6656 -0.345209 -78.386
rradius 70.0976
rwrist -9.63839
rhand -26.2916 12.259
rfingers 7.12502
rthumb 0.264144 -17.7206
lclavicle -2.14687e-014 -2.14687e-014
lhumerus -46.5371 -9.97235 98.9195
lradius 93.9578
lwrist 15.1838
lhand -23.6581 -11.9226
lfingers 7.12502
lthumb 2.80752 18.0387
rfemur -50.5705 -0.886633 21.6613
rtibia 56.5838
rfoot -10.3739 -7.56596
rtoes -31.296
lfemur -2.28848 1.64037 -19.7809
ltibia 101.1
lfoot 14.3848 -9.16918
ltoes 7.3702
126
root 4.66895 16.4414 -42.45 -172.157 1.34589 -179.333
lowerback 16.7735 -1.03084 0.93179
upperback -0.532842 -0.575108 3.70442
thorax -10.0069 -0.111961 3.63754
lowerneck -23.2575 -0.524912 -2.68695
upperneck 12.1278 0.80822 -3.04449
head 7.51366 -0.0118385 -0.476378
rclavicle 2.00773e-014 1.59028e-014
rhumerus -52.0565 0.26589 -79.0214
rradius 68.5581
rwrist -9.91423
rhand -26.1704 12.0567
rfingers 7.12502
rthumb 0.381172 -17.9227
lclavicle 2.00773e-014 1.59028e-014
lhumerus -46.9187 -8.91885 98.6814
lradius 90.5514
lwrist 15.7059
lhand -24.2377 -12.2685
lfingers 7.12502
lthumb 2.24776 17.6994
rfemur -48.5029 -0.133048 23.2891
rtibia 58.966
rfoot -12.6813 -8.32724
rtoes -29.3867
lfemur -5.28659 2.93977 -17.3579
ltibia 104.901
lfoot 12.5599 -10.3576
ltoes 6.98045
127
root 4.70814 16.4038 -43.1283 -172.43 1.4255 -178.187
lowerback 17.018 -0.94741 1.68748
upperback -0.479915 -0.218934 4.07191
thorax -10.1136 0.0510907 3.52255
lowerneck -23.3109 -0.555328 -2.65845
upperneck 12.2971 0.767921 -3.06406
head 7.57907 -0.0367866 -0.493582
rclavicle 1.2921e-014 3.89618e-014
rhumerus -49.5169 1.03824 -79.674
rradius 67.282
rwrist -10.0201
rhand -26.0267 11.8055
rfingers 7.12502
rthumb 0.519957 -18.1736
lclavicle 1.2921e-014 3.89618e-014
lhumerus -47.4382 -7.9626 98.4264
lradius 87.4575
lwrist 16.3738
lhand -24.7876 -12.6135
lfingers 7.12502
lthumb 1.71668 17.3594
rfemur -46.2154 0.337753 24.7155
rtibia 60.7014
rfoot -15.2262 -9.45495
rtoes -29.1243
lfemur -8.78617 3.93889 -15.2728
ltibia 108.258
lfoot 10.7534 -11.4308
ltoes 6.53064
128
root 4.74873 16.3773 -43.8085 -172.511 1.22815 -177.294
lowerback 16.9707 -0.926972 2.24107
upperback -0.488208 -0.010679 4.38998
thorax -10.1109 0.147459 3.50026
lowerneck -23.4432 -0.59736 -2.6381
upperneck 12.5822 0.713898 -3.05031
head 7.6959 -0.0691726 -0.501089
rclavicle -1.39149e-014 4.29375e-014
rhumerus -47.1529 1.92258 -80.34
rradius 66.4632
rwrist -9.94193
rhand -25.8529 11.5448
rfingers 7.12502
rthumb 0.687806 -18.4338
lclavicle -1.39149e-014 4.29375e-014
lhumerus -48.149 -7.19444 98.1715
lradius 84.8413
lwrist 17.025
lhand -25.215 -12.9914
lfingers 7.12502
lthumb 1.30389 16.9844
rfemur -43.7724 0.468292 25.9023
rtibia 61.838
rfoot -17.8052 -10.8988
rtoes -30.2994
lfemur -12.7836 4.61079 -13.6938
ltibia 111.129
lfoot 8.98432 -12.2165
ltoes 6.01778
129
root 4.7886 16.3599 -44.4909 -172.446 0.788336 -176.675
lowerback 16.6883 -0.951212 2.59663
upperback -0.564799 0.0674509 4.64167
thorax -10.042 0.184343 3.54825
lowerneck -23.5855 -0.658374 -2.62894
upperneck 12.9425 0.634277 -3.0101
head 7.83971 -0.113636 -0.501912
rclavicle 1.53064e-014 -4.05521e-014
rhumerus -45.0966 2.85832 -81.0071
rradius 66.2841
rwrist -9.76096
rhand -25.6276 11.3305
rfingers 7.12502
rthumb 0.905452 -18.6473
lclavicle 1.53064e-014 -4.05521e-014
lhumerus -49.1236 -6.69121 97.9649
lradius 82.8541
lwrist 17.5059
lhand -25.453 -13.3919
lfingers 7.12502
lthumb 1.07409 16.5851
rfemur -41.2084 0.264421 26.8134
rtibia 62.4668
rfoot -20.3344 -12.5242
rtoes -32.1443
lfemur -17.1973 4.94268 -12.7308
ltibia 113.458
lfoot 7.29367 -12.5878
ltoes 5.50171
130
root 4.82757 16.3511 -45.1755 -172.3 0.172348 -176.247
lowerback 16.2747 -0.993988 2.82168
upperback -0.712055 0.0710586 4.83264
thorax -9.97197 0.185939 3.62231
lowerneck -23.6627 -0.748125 -2.61035
upperneck 13.3356 0.506857 -2.95612
head 7.98432 -0.179143 -0.50615
rclavicle -5.36719e-015 1.27222e-014
rhumerus -43.4652 3.76021 -81.6798
rradius 66.8689
rwrist -9.58357
rhand -25.3585 11.2055
rfingers 7.12502
rthumb 1.16528 -18.7711
lclavicle -5.36719e-015 1.27222e-014
lhumerus -50.4341 -6.5265 97.8497
lradius 81.6102
lwrist 17.7095
lhand -25.4515 -13.8088
lfingers 7.12502
lthumb 1.07548 16.1683
rfemur -38.5072 -0.189398 27.5266
rtibia 62.6466
rfoot -22.5624 -14.1263
rtoes -33.8329
lfemur -21.8657 4.976 -12.2712
ltibia 115.189
lfoot 5.70082 -12.5639
ltoes 4.91433
